# xmcd
#
# Track frame offsets: 
#        150
#        21872
#        39660
#        59310
#        101460
#        127996
#        158986
#
# Disc length: 2505 seconds
#
# Revision: 0
# Processed by: cddbd v1.5.2PL0 Copyright (c) Steve Scherf et al.
# Submitted via: ExactAudioCopy v0.95b4
#
DISCID=5309c707
DTITLE=Eric Clapton - Live In Great Smoke - CD1
DYEAR=1977
DGENRE=Blues
TTITLE0=Hello Old Friend
TTITLE1=Sign Language
TTITLE2=Alberta
TTITLE3=Tell The Truth
TTITLE4=Knockin' On Heavens Door
TTITLE5=Steady Rollin' Man
TTITLE6=Can't Find My Way Home
EXTD=
EXTT0=
EXTT1=
EXTT2=
EXTT3=
EXTT4=
EXTT5=
EXTT6=
PLAYORDER=
